<?xml version="1.0" encoding="UTF-8" ?>
<svg version="1.1" width="32" height="32" xmlns="http://www.w3.org/2000/svg" shape-rendering="crispEdges">
<rect x="7" y="0" width="18" height="1" fill="#000000" />
<rect x="7" y="1" width="1" height="31" fill="#000000" />
<rect x="8" y="1" width="7" height="1" fill="#5B6EE1" />
<rect x="15" y="1" width="3" height="1" fill="#FBF236" />
<rect x="18" y="1" width="6" height="1" fill="#5B6EE1" />
<rect x="24" y="1" width="1" height="31" fill="#000000" />
<rect x="8" y="2" width="6" height="5" fill="#5B6EE1" />
<rect x="14" y="2" width="2" height="1" fill="#FBF236" />
<rect x="16" y="2" width="1" height="3" fill="#5B6EE1" />
<rect x="17" y="2" width="2" height="1" fill="#FBF236" />
<rect x="19" y="2" width="5" height="5" fill="#5B6EE1" />
<rect x="14" y="3" width="1" height="2" fill="#FBF236" />
<rect x="15" y="3" width="1" height="1" fill="#5B6EE1" />
<rect x="17" y="3" width="1" height="1" fill="#5B6EE1" />
<rect x="18" y="3" width="1" height="2" fill="#FBF236" />
<rect x="15" y="4" width="1" height="2" fill="#FBF236" />
<rect x="17" y="4" width="1" height="2" fill="#FBF236" />
<rect x="14" y="5" width="1" height="2" fill="#5B6EE1" />
<rect x="16" y="5" width="1" height="1" fill="#FBF236" />
<rect x="18" y="5" width="1" height="2" fill="#5B6EE1" />
<rect x="15" y="6" width="3" height="1" fill="#5B6EE1" />
<rect x="8" y="7" width="16" height="1" fill="#FBF236" />
<rect x="8" y="8" width="6" height="1" fill="#FBF236" />
<rect x="14" y="8" width="4" height="1" fill="#5B6EE1" />
<rect x="18" y="8" width="6" height="1" fill="#FBF236" />
<rect x="8" y="9" width="3" height="18" fill="#FBF236" />
<rect x="11" y="9" width="1" height="1" fill="#5B6EE1" />
<rect x="12" y="9" width="1" height="1" fill="#FBF236" />
<rect x="13" y="9" width="1" height="2" fill="#5B6EE1" />
<rect x="14" y="9" width="4" height="2" fill="#FBF236" />
<rect x="18" y="9" width="1" height="2" fill="#5B6EE1" />
<rect x="19" y="9" width="5" height="18" fill="#FBF236" />
<rect x="11" y="10" width="1" height="17" fill="#FBF236" />
<rect x="12" y="10" width="1" height="1" fill="#5B6EE1" />
<rect x="12" y="11" width="2" height="2" fill="#FBF236" />
<rect x="14" y="11" width="4" height="1" fill="#5B6EE1" />
<rect x="18" y="11" width="1" height="2" fill="#FBF236" />
<rect x="14" y="12" width="4" height="1" fill="#FBF236" />
<rect x="12" y="13" width="1" height="14" fill="#FBF236" />
<rect x="13" y="13" width="6" height="1" fill="#5B6EE1" />
<rect x="13" y="14" width="2" height="1" fill="#FBF236" />
<rect x="15" y="14" width="2" height="1" fill="#5B6EE1" />
<rect x="17" y="14" width="2" height="2" fill="#FBF236" />
<rect x="13" y="15" width="1" height="1" fill="#FBF236" />
<rect x="14" y="15" width="1" height="2" fill="#5B6EE1" />
<rect x="15" y="15" width="2" height="1" fill="#FBF236" />
<rect x="13" y="16" width="1" height="1" fill="#5B6EE1" />
<rect x="15" y="16" width="4" height="1" fill="#5B6EE1" />
<rect x="13" y="17" width="6" height="1" fill="#FBF236" />
<rect x="13" y="18" width="1" height="1" fill="#FBF236" />
<rect x="14" y="18" width="4" height="1" fill="#5B6EE1" />
<rect x="18" y="18" width="1" height="1" fill="#FBF236" />
<rect x="13" y="19" width="1" height="2" fill="#5B6EE1" />
<rect x="14" y="19" width="4" height="2" fill="#FBF236" />
<rect x="18" y="19" width="1" height="2" fill="#5B6EE1" />
<rect x="13" y="21" width="1" height="2" fill="#FBF236" />
<rect x="14" y="21" width="4" height="1" fill="#5B6EE1" />
<rect x="18" y="21" width="1" height="2" fill="#FBF236" />
<rect x="14" y="22" width="4" height="3" fill="#FBF236" />
<rect x="13" y="23" width="1" height="2" fill="#5B6EE1" />
<rect x="18" y="23" width="1" height="2" fill="#5B6EE1" />
<rect x="13" y="25" width="1" height="2" fill="#FBF236" />
<rect x="14" y="25" width="4" height="1" fill="#5B6EE1" />
<rect x="18" y="25" width="1" height="2" fill="#FBF236" />
<rect x="14" y="26" width="4" height="1" fill="#FBF236" />
<rect x="8" y="27" width="16" height="1" fill="#5B6EE1" />
<rect x="8" y="28" width="16" height="1" fill="#FBF236" />
<rect x="8" y="29" width="16" height="1" fill="#5B6EE1" />
<rect x="8" y="30" width="16" height="1" fill="#FBF236" />
<rect x="8" y="31" width="16" height="1" fill="#000000" />
</svg>